<?xml version="1.0" standalone="no"?>
<!DOCTYPE svg PUBLIC "-//W3C//DTD SVG 20010904//EN"
 "http://www.w3.org/TR/2001/REC-SVG-20010904/DTD/svg10.dtd">
<svg version="1.0" xmlns="http://www.w3.org/2000/svg"
 width="217.000000pt" height="213.000000pt" viewBox="0 0 217.000000 213.000000"
 preserveAspectRatio="xMidYMid meet">

<g transform="translate(0.000000,213.000000) scale(0.100000,-0.100000)"
fill="#000000" stroke="none">
<path d="M944 1841 c-278 -65 -510 -256 -621 -513 -35 -80 -72 -228 -73 -285
0 -33 0 -33 49 -33 53 0 61 8 61 60 0 15 12 67 26 116 77 268 268 459 539 540
124 36 292 38 410 5 126 -36 244 -102 336 -188 43 -41 79 -79 79 -83 0 -5 -26
-27 -57 -49 l-57 -40 -67 64 c-274 258 -718 219 -939 -83 -63 -86 -109 -195
-117 -278 l-6 -64 177 0 c160 0 177 2 182 18 14 46 60 125 87 148 58 49 107
67 182 68 53 0 81 -5 117 -22 43 -22 109 -84 134 -128 11 -18 13 -18 53 10 22
16 41 32 41 35 0 32 -106 138 -175 174 -56 30 -67 32 -165 32 -93 0 -111 -3
-163 -27 -64 -30 -156 -117 -176 -167 l-13 -31 -80 0 c-78 0 -79 0 -73 23 32
104 146 238 252 294 207 111 470 69 629 -99 28 -29 58 -65 68 -80 10 -16 23
-28 28 -28 5 0 46 26 91 58 45 31 108 75 140 96 31 22 57 43 57 47 0 16 -92
128 -151 185 -111 105 -237 176 -381 216 -108 29 -317 34 -424 9z"/>
<path d="M250 898 c1 -65 41 -215 80 -296 52 -110 99 -179 168 -248 119 -120
243 -194 403 -240 82 -24 112 -28 234 -28 119 -1 153 3 225 23 157 45 268 106
383 211 50 45 157 178 157 194 0 3 -19 18 -41 33 l-42 28 -16 -25 c-100 -154
-262 -275 -445 -332 -60 -19 -94 -23 -221 -23 -170 0 -221 12 -370 88 -103 53
-253 198 -310 300 -33 60 -85 199 -85 227 0 6 33 10 73 10 l73 0 28 -72 c37
-94 70 -146 137 -215 125 -129 241 -181 424 -190 170 -8 286 27 417 124 86 65
182 185 161 203 -4 4 -71 50 -149 103 l-140 95 -19 -34 c-24 -46 -78 -92 -134
-117 -36 -16 -59 -19 -123 -15 -70 4 -84 9 -131 41 -57 40 -89 81 -110 142
-14 39 -15 40 -67 43 l-53 3 6 -34 c17 -107 106 -219 215 -270 61 -29 76 -32
162 -32 81 0 103 4 150 26 31 14 73 41 94 59 38 34 38 34 70 16 17 -9 45 -28
61 -41 l30 -23 -35 -37 c-115 -119 -310 -177 -477 -142 -101 22 -177 62 -255
135 -82 78 -133 165 -155 267 l-17 75 -178 0 -178 0 0 -32z"/>
</g>
</svg>
